<svg width="25" height="25" viewBox="0 0 25 25" fill="none" xmlns="http://www.w3.org/2000/svg">
<path d="M12.0619 2.00001C9.97335 2.00001 7.97032 2.8297 6.49347 4.30654C5.01662 5.78339 4.18693 7.78643 4.18693 9.87501V14.0768L2.49993 18.3013C2.4471 18.4339 2.42753 18.5775 2.44295 18.7195C2.45837 18.8615 2.5083 18.9975 2.58839 19.1157C2.66848 19.234 2.77629 19.3308 2.90241 19.3978C3.02853 19.4648 3.16913 19.4999 3.31193 19.5H8.56193C8.56193 21.439 10.1229 23 12.0619 23C14.0009 23 15.5619 21.439 15.5619 19.5H20.8119C20.9547 19.4999 21.0953 19.4648 21.2215 19.3978C21.3476 19.3308 21.4554 19.234 21.5355 19.1157C21.6156 18.9975 21.6655 18.8615 21.6809 18.7195C21.6963 18.5775 21.6768 18.4339 21.6239 18.3013L19.9369 14.075V10.75C19.3348 10.7504 18.739 10.6265 18.1869 10.386V14.2465C18.1872 14.3574 18.2086 14.4673 18.2499 14.5703L19.5204 17.75H4.60343L5.87393 14.5703C5.91527 14.4673 5.93665 14.3574 5.93693 14.2465V9.87501C5.93663 8.73273 6.25576 7.61312 6.85828 6.64266C7.4608 5.6722 8.32269 4.88957 9.34659 4.38317C10.3705 3.87677 11.5156 3.66678 12.6526 3.77693C13.7895 3.88708 14.873 4.31298 15.7807 5.00651C15.9679 4.43776 16.2689 3.91801 16.6574 3.47876C15.3193 2.51475 13.7112 1.9973 12.0619 2.00001ZM13.8119 19.5C13.8119 20.473 13.0349 21.25 12.0619 21.25C11.0889 21.25 10.3119 20.473 10.3119 19.5H13.8119ZM17.9559 4.65301C17.7066 4.9399 17.5225 5.27751 17.4165 5.64251C17.3104 6.00751 17.2849 6.39118 17.3417 6.76701C17.4355 7.38818 17.749 7.9551 18.2252 8.36484C18.7014 8.77457 19.3087 8.99994 19.9369 9.00001C20.3764 9.00005 20.8088 8.88976 21.1946 8.67926C21.5803 8.46875 21.9071 8.16477 22.1448 7.79518C22.3826 7.42559 22.5238 7.00223 22.5554 6.56391C22.587 6.12559 22.5081 5.68635 22.3258 5.28646C22.1436 4.88657 21.8639 4.53883 21.5123 4.27513C21.1608 4.01143 20.7487 3.84021 20.3138 3.77716C19.8788 3.71412 19.4351 3.76127 19.0231 3.9143C18.6112 4.06732 18.2442 4.32133 17.9559 4.65301Z" fill="black"/>
<circle cx="19.937" cy="6.383" r="2.633" fill="#FF5B35"/>
</svg>
