<svg width="24" height="24" viewBox="0 0 24 24" fill="none" xmlns="http://www.w3.org/2000/svg">
<path fill-rule="evenodd" clip-rule="evenodd" d="M6.99997 8.99997C6.80222 9.00001 6.60892 9.05868 6.44451 9.16857C6.2801 9.27845 6.15196 9.43462 6.07629 9.61732C6.00062 9.80001 5.98082 10.001 6.01939 10.195C6.05795 10.389 6.15316 10.5671 6.29297 10.707L11.293 15.707C11.4805 15.8944 11.7348 15.9998 12 15.9998C12.2651 15.9998 12.5194 15.8944 12.707 15.707L17.707 10.707C17.8468 10.5671 17.942 10.389 17.9806 10.195C18.0191 10.001 17.9993 9.80001 17.9236 9.61732C17.848 9.43462 17.7198 9.27845 17.5554 9.16857C17.391 9.05868 17.1977 9.00001 17 8.99997L6.99997 8.99997Z" fill="#6E6E6E"/>
</svg>
