<svg width="13" height="14" viewBox="0 0 13 14" fill="none" xmlns="http://www.w3.org/2000/svg">
<path d="M11.6707 4.80062C11.5184 4.6483 11.3117 4.56273 11.0963 4.56273C10.8809 4.56273 10.6742 4.6483 10.5219 4.80062L6.49999 8.82249L2.47812 4.80062C2.32488 4.65261 2.11964 4.57072 1.9066 4.57257C1.69357 4.57442 1.48978 4.65987 1.33914 4.81051C1.18849 4.96116 1.10304 5.16494 1.10119 5.37798C1.09934 5.59101 1.18124 5.79625 1.32924 5.94949L5.92555 10.5458C6.07792 10.6981 6.28455 10.7837 6.49999 10.7837C6.71544 10.7837 6.92206 10.6981 7.07443 10.5458L11.6707 5.94949C11.8231 5.79712 11.9086 5.5905 11.9086 5.37505C11.9086 5.15961 11.8231 4.95298 11.6707 4.80062Z" fill="black"/>
</svg>
