<svg width="16" height="16" viewBox="0 0 16 16" fill="none" xmlns="http://www.w3.org/2000/svg">
<path d="M7.99998 1.33337C11.682 1.33337 14.6666 4.31804 14.6666 8.00004C14.6666 11.682 11.682 14.6667 7.99998 14.6667C4.31798 14.6667 1.33331 11.682 1.33331 8.00004C1.33331 4.31804 4.31798 1.33337 7.99998 1.33337ZM7.99998 2.66671C6.58549 2.66671 5.22894 3.22861 4.22874 4.2288C3.22855 5.229 2.66665 6.58555 2.66665 8.00004C2.66665 9.41453 3.22855 10.7711 4.22874 11.7713C5.22894 12.7715 6.58549 13.3334 7.99998 13.3334C9.41447 13.3334 10.771 12.7715 11.7712 11.7713C12.7714 10.7711 13.3333 9.41453 13.3333 8.00004C13.3333 6.58555 12.7714 5.229 11.7712 4.2288C10.771 3.22861 9.41447 2.66671 7.99998 2.66671ZM7.99998 10C8.17679 10 8.34636 10.0703 8.47138 10.1953C8.59641 10.3203 8.66665 10.4899 8.66665 10.6667C8.66665 10.8435 8.59641 11.0131 8.47138 11.1381C8.34636 11.2631 8.17679 11.3334 7.99998 11.3334C7.82317 11.3334 7.6536 11.2631 7.52858 11.1381C7.40355 11.0131 7.33331 10.8435 7.33331 10.6667C7.33331 10.4899 7.40355 10.3203 7.52858 10.1953C7.6536 10.0703 7.82317 10 7.99998 10ZM7.99998 4.00004C8.17679 4.00004 8.34636 4.07028 8.47138 4.1953C8.59641 4.32033 8.66665 4.4899 8.66665 4.66671V8.66671C8.66665 8.84352 8.59641 9.01309 8.47138 9.13811C8.34636 9.26314 8.17679 9.33337 7.99998 9.33337C7.82317 9.33337 7.6536 9.26314 7.52858 9.13811C7.40355 9.01309 7.33331 8.84352 7.33331 8.66671V4.66671C7.33331 4.4899 7.40355 4.32033 7.52858 4.1953C7.6536 4.07028 7.82317 4.00004 7.99998 4.00004Z" fill="#EA575B"/>
</svg>
