<svg width="25" height="26" viewBox="0 0 25 26" fill="none" xmlns="http://www.w3.org/2000/svg">
<path d="M12.1094 17.5898C12.2274 17.6573 12.3611 17.6928 12.4971 17.6928C12.6331 17.6928 12.7667 17.6573 12.8848 17.5898C13.124 17.4521 18.7441 14.1718 18.7441 8.31734C18.695 6.69361 18.0157 5.15279 16.85 4.02137C15.6843 2.88996 14.1239 2.25686 12.4994 2.25623C10.875 2.25559 9.31407 2.88747 8.1475 4.01797C6.98094 5.14847 6.30036 6.68876 6.25 8.31246C6.25 14.1718 11.873 17.4472 12.1094 17.5898ZM12.5 5.96871C12.9635 5.96871 13.4167 6.10616 13.8021 6.3637C14.1875 6.62123 14.488 6.98728 14.6653 7.41554C14.8427 7.84381 14.8891 8.31506 14.7987 8.7697C14.7083 9.22434 14.4851 9.64196 14.1573 9.96974C13.8295 10.2975 13.4119 10.5207 12.9572 10.6112C12.5026 10.7016 12.0314 10.6552 11.6031 10.4778C11.1748 10.3004 10.8088 10 10.5512 9.61457C10.2937 9.22915 10.1562 8.77601 10.1562 8.31246C10.1562 7.69085 10.4032 7.09471 10.8427 6.65517C11.2823 6.21564 11.8784 5.96871 12.5 5.96871ZM23.4375 18.4687C23.4375 21.5136 17.8018 23.1562 12.5 23.1562C7.19824 23.1562 1.5625 21.5136 1.5625 18.4687C1.5625 17.0439 2.85352 15.7822 5.19824 14.9169C5.39053 14.8534 5.59996 14.867 5.7824 14.9549C5.96484 15.0428 6.10602 15.1981 6.17618 15.3881C6.24634 15.5781 6.23999 15.7878 6.15848 15.9732C6.07698 16.1586 5.92667 16.3051 5.73926 16.3818C4.12695 16.9785 3.125 17.7773 3.125 18.4687C3.125 19.7734 6.69141 21.5937 12.5 21.5937C18.3086 21.5937 21.875 19.7734 21.875 18.4687C21.875 17.7773 20.873 16.9785 19.2607 16.3828C19.0733 16.3061 18.923 16.1596 18.8415 15.9742C18.76 15.7888 18.7537 15.579 18.8238 15.3891C18.894 15.1991 19.0352 15.0438 19.2176 14.9559C19.4 14.868 19.6095 14.8544 19.8018 14.9179C22.1465 15.7822 23.4375 17.0439 23.4375 18.4687Z" fill="#0FB758"/>
</svg>
